<svg width="250" height="250" viewBox="0 0 250 250" fill="none" xmlns="http://www.w3.org/2000/svg">
<rect width="250" height="250" fill="#0368A0"/>
<path d="M56.5513 87.3347C56.5513 90.5654 55.47 92.9515 53.3075 94.493C51.1661 96.0344 48.3039 96.8052 44.7209 96.8052C41.1378 96.8052 38.265 96.0344 36.1025 94.493C33.9611 92.9515 32.8905 90.5443 32.8905 87.2713V83.5338C32.8905 81.38 33.3993 79.5957 34.417 78.1809C35.4558 76.7451 36.8657 75.6893 38.6467 75.0136C40.4276 74.3379 42.4523 74 44.7209 74C46.9894 74 49.0036 74.3379 50.7633 75.0136C52.5442 75.6893 53.9541 76.7345 54.993 78.1493C56.0318 79.564 56.5513 81.3378 56.5513 83.4705V87.3347ZM41.477 87.9365C41.477 88.8022 41.7633 89.4674 42.3357 89.9319C42.9293 90.3965 43.7244 90.6288 44.7209 90.6288C45.7173 90.6288 46.5018 90.3965 47.0742 89.9319C47.6679 89.4463 47.9647 88.7706 47.9647 87.9048V82.9004C47.9647 82.0346 47.6679 81.3695 47.0742 80.9049C46.5018 80.4192 45.7173 80.1764 44.7209 80.1764C43.7244 80.1764 42.9293 80.4087 42.3357 80.8732C41.7633 81.3378 41.477 82.0029 41.477 82.8687V87.9365Z" fill="white"/>
<path d="M74.9841 74.3167C76.9771 74.3167 78.7156 74.6546 80.1997 75.3303C81.6838 76.006 82.8181 76.9246 83.6025 78.0859C84.387 79.2473 84.7792 80.5459 84.7792 81.9818C84.7792 84.3468 84.0371 86.205 82.553 87.5564C81.0689 88.8867 78.546 89.5519 74.9841 89.5519H70.7862V95.6332C70.7862 95.8655 70.7014 96.0661 70.5318 96.235C70.3622 96.404 70.1608 96.4884 69.9276 96.4884H63.0901C62.8569 96.4884 62.6555 96.404 62.4859 96.235C62.3163 96.0661 62.2314 95.8655 62.2314 95.6332V75.1719C62.2314 74.9397 62.3163 74.7391 62.4859 74.5701C62.6555 74.4012 62.8569 74.3167 63.0901 74.3167H74.9841ZM74.8569 83.6922C75.3657 83.6922 75.7686 83.5444 76.0654 83.2488C76.3622 82.932 76.5106 82.5203 76.5106 82.0135C76.5106 81.4856 76.3622 81.0527 76.0654 80.7149C75.7686 80.377 75.3657 80.2081 74.8569 80.2081H70.818V83.6922H74.8569Z" fill="white"/>
<path d="M109.064 90.312C109.297 90.312 109.498 90.3965 109.668 90.5654C109.837 90.7344 109.922 90.935 109.922 91.1672V95.6332C109.922 95.8655 109.837 96.0661 109.668 96.235C109.498 96.404 109.297 96.4884 109.064 96.4884H88.9647C88.7314 96.4884 88.53 96.404 88.3604 96.235C88.1908 96.0661 88.106 95.8655 88.106 95.6332V75.1719C88.106 74.9397 88.1908 74.7391 88.3604 74.5701C88.53 74.4012 88.7314 74.3167 88.9647 74.3167H108.746C108.979 74.3167 109.18 74.4012 109.35 74.5701C109.519 74.7391 109.604 74.9397 109.604 75.1719V79.6379C109.604 79.8702 109.519 80.0708 109.35 80.2397C109.18 80.4087 108.979 80.4931 108.746 80.4931H96.3746V82.4886H106.996C107.23 82.4886 107.431 82.5731 107.601 82.742C107.77 82.9109 107.855 83.1115 107.855 83.3438V87.4614C107.855 87.6937 107.77 87.8943 107.601 88.0632C107.431 88.2321 107.23 88.3166 106.996 88.3166H96.3746V90.312H109.064Z" fill="white"/>
<path d="M135.733 74.3167C135.966 74.3167 136.168 74.4012 136.337 74.5701C136.507 74.7391 136.592 74.9397 136.592 75.1719V95.6332C136.592 95.8655 136.507 96.0661 136.337 96.235C136.168 96.404 135.966 96.4884 135.733 96.4884H130.613C130.104 96.4884 129.68 96.2667 129.341 95.8233L122.408 87.018V95.6332C122.408 95.8655 122.323 96.0661 122.154 96.235C121.984 96.404 121.783 96.4884 121.549 96.4884H115.634C115.401 96.4884 115.2 96.404 115.03 96.235C114.86 96.0661 114.776 95.8655 114.776 95.6332V75.1719C114.776 74.9397 114.86 74.7391 115.03 74.5701C115.2 74.4012 115.401 74.3167 115.634 74.3167H120.786C121.295 74.3167 121.708 74.5279 122.026 74.9502L128.959 84.484V75.1719C128.959 74.9397 129.044 74.7391 129.214 74.5701C129.383 74.4012 129.585 74.3167 129.818 74.3167H135.733Z" fill="white"/>
<path d="M55.47 113.414C55.7032 113.414 55.9046 113.499 56.0743 113.668C56.2439 113.836 56.3287 114.037 56.3287 114.269V119.084C56.3287 119.316 56.2439 119.517 56.0743 119.686C55.9046 119.854 55.7032 119.939 55.47 119.939H42.9718V121.966H53.4029C53.6361 121.966 53.8375 122.051 54.0071 122.219C54.1767 122.388 54.2615 122.589 54.2615 122.821V127.604C54.2615 127.836 54.1767 128.037 54.0071 128.206C53.8375 128.375 53.6361 128.459 53.4029 128.459H42.9718V134.731C42.9718 134.963 42.8869 135.164 42.7173 135.332C42.5477 135.501 42.3463 135.586 42.1131 135.586H35.2438C35.0106 135.586 34.8092 135.501 34.6396 135.332C34.47 135.164 34.3852 134.963 34.3852 134.731V114.269C34.3852 114.037 34.47 113.836 34.6396 113.668C34.8092 113.499 35.0106 113.414 35.2438 113.414H55.47Z" fill="white"/>
<path d="M76.0654 129.093H81.8216C82.0548 129.093 82.2562 129.177 82.4258 129.346C82.5954 129.515 82.6803 129.716 82.6803 129.948V134.731C82.6803 134.963 82.5954 135.164 82.4258 135.332C82.2562 135.501 82.0548 135.586 81.8216 135.586H61.659C61.4258 135.586 61.2244 135.501 61.0548 135.332C60.8852 135.164 60.8004 134.963 60.8004 134.731V129.948C60.8004 129.716 60.8852 129.515 61.0548 129.346C61.2244 129.177 61.4258 129.093 61.659 129.093H67.4788V119.907H61.659C61.4258 119.907 61.2244 119.823 61.0548 119.654C60.8852 119.485 60.8004 119.284 60.8004 119.052V114.269C60.8004 114.037 60.8852 113.836 61.0548 113.668C61.2244 113.499 61.4258 113.414 61.659 113.414H81.8216C82.0548 113.414 82.2562 113.499 82.4258 113.668C82.5954 113.836 82.6803 114.037 82.6803 114.269V119.052C82.6803 119.284 82.5954 119.485 82.4258 119.654C82.2562 119.823 82.0548 119.907 81.8216 119.907H76.0654V129.093Z" fill="white"/>
<path d="M108.714 113.414C108.947 113.414 109.148 113.499 109.318 113.668C109.488 113.836 109.572 114.037 109.572 114.269V134.731C109.572 134.963 109.488 135.164 109.318 135.332C109.148 135.501 108.947 135.586 108.714 135.586H103.594C103.085 135.586 102.661 135.364 102.322 134.921L95.3887 126.115V134.731C95.3887 134.963 95.3039 135.164 95.1343 135.332C94.9647 135.501 94.7633 135.586 94.53 135.586H88.6148C88.3816 135.586 88.1802 135.501 88.0106 135.332C87.841 135.164 87.7562 134.963 87.7562 134.731V114.269C87.7562 114.037 87.841 113.836 88.0106 113.668C88.1802 113.499 88.3816 113.414 88.6148 113.414H93.7668C94.2756 113.414 94.689 113.625 95.0071 114.048L101.94 123.581V114.269C101.94 114.037 102.025 113.836 102.194 113.668C102.364 113.499 102.565 113.414 102.799 113.414H108.714Z" fill="white"/>
<path d="M121.2 134.509C120.924 135.227 120.447 135.586 119.769 135.586H113.758C113.567 135.586 113.397 135.522 113.249 135.396C113.122 135.248 113.058 135.079 113.058 134.889L113.09 134.699L120.023 114.459C120.108 114.185 120.267 113.942 120.5 113.731C120.733 113.52 121.051 113.414 121.454 113.414H130.295C130.698 113.414 131.016 113.52 131.249 113.731C131.482 113.942 131.641 114.185 131.726 114.459L138.659 134.699L138.691 134.889C138.691 135.079 138.617 135.248 138.468 135.396C138.341 135.522 138.182 135.586 137.991 135.586H131.981C131.302 135.586 130.825 135.227 130.549 134.509L129.754 132.292H121.995L121.2 134.509ZM125.875 119.527L123.617 126.115H128.133L125.875 119.527Z" fill="white"/>
<path d="M162.753 113.414C162.986 113.414 163.187 113.499 163.357 113.668C163.527 113.836 163.611 114.037 163.611 114.269V134.731C163.611 134.963 163.527 135.164 163.357 135.332C163.187 135.501 162.986 135.586 162.753 135.586H157.633C157.124 135.586 156.7 135.364 156.36 134.921L149.428 126.115V134.731C149.428 134.963 149.343 135.164 149.173 135.332C149.004 135.501 148.802 135.586 148.569 135.586H142.654C142.42 135.586 142.219 135.501 142.049 135.332C141.88 135.164 141.795 134.963 141.795 134.731V114.269C141.795 114.037 141.88 113.836 142.049 113.668C142.219 113.499 142.42 113.414 142.654 113.414H147.806C148.314 113.414 148.728 113.625 149.046 114.048L155.979 123.581V114.269C155.979 114.037 156.064 113.836 156.233 113.668C156.403 113.499 156.604 113.414 156.837 113.414H162.753Z" fill="white"/>
<path d="M176.892 127.034C176.892 127.9 177.178 128.565 177.751 129.029C178.345 129.494 179.14 129.726 180.136 129.726C181.026 129.726 181.684 129.578 182.108 129.283C182.532 128.987 182.892 128.544 183.189 127.952C183.465 127.403 183.836 127.129 184.302 127.129H191.171C191.362 127.129 191.521 127.203 191.648 127.351C191.797 127.477 191.871 127.636 191.871 127.826C191.871 129.114 191.436 130.381 190.567 131.627C189.698 132.851 188.373 133.875 186.592 134.699C184.832 135.501 182.68 135.903 180.136 135.903C177.867 135.903 175.843 135.565 174.062 134.889C172.302 134.192 170.903 133.136 169.864 131.722C168.825 130.286 168.306 128.501 168.306 126.369V122.631C168.306 120.499 168.825 118.725 169.864 117.31C170.903 115.874 172.302 114.818 174.062 114.143C175.843 113.446 177.867 113.097 180.136 113.097C182.68 113.097 184.832 113.509 186.592 114.333C188.373 115.135 189.698 116.159 190.567 117.405C191.436 118.63 191.871 119.886 191.871 121.174C191.871 121.364 191.797 121.533 191.648 121.681C191.521 121.808 191.362 121.871 191.171 121.871H184.302C183.836 121.871 183.465 121.597 183.189 121.048C182.892 120.456 182.532 120.013 182.108 119.717C181.684 119.422 181.026 119.274 180.136 119.274C179.14 119.274 178.345 119.506 177.751 119.971C177.178 120.435 176.892 121.1 176.892 121.966V127.034Z" fill="white"/>
<path d="M217.141 129.409C217.375 129.409 217.576 129.494 217.746 129.663C217.915 129.832 218 130.032 218 130.265V134.731C218 134.963 217.915 135.164 217.746 135.332C217.576 135.501 217.375 135.586 217.141 135.586H197.042C196.809 135.586 196.608 135.501 196.438 135.332C196.269 135.164 196.184 134.963 196.184 134.731V114.269C196.184 114.037 196.269 113.836 196.438 113.668C196.608 113.499 196.809 113.414 197.042 113.414H216.823C217.057 113.414 217.258 113.499 217.428 113.668C217.597 113.836 217.682 114.037 217.682 114.269V118.735C217.682 118.968 217.597 119.168 217.428 119.337C217.258 119.506 217.057 119.591 216.823 119.591H204.452V121.586H215.074C215.307 121.586 215.509 121.67 215.678 121.839C215.848 122.008 215.933 122.209 215.933 122.441V126.559C215.933 126.791 215.848 126.992 215.678 127.161C215.509 127.33 215.307 127.414 215.074 127.414H204.452V129.409H217.141Z" fill="white"/>
<path d="M40.1414 173.606C39.8657 174.324 39.3887 174.683 38.7103 174.683H32.6996C32.5088 174.683 32.3392 174.62 32.1908 174.493C32.0636 174.345 32 174.176 32 173.986L32.0318 173.796L38.9647 153.557C39.0495 153.282 39.2085 153.039 39.4417 152.828C39.6749 152.617 39.9929 152.512 40.3958 152.512H49.2368C49.6396 152.512 49.9576 152.617 50.1908 152.828C50.4241 153.039 50.5831 153.282 50.6679 153.557L57.6008 173.796L57.6326 173.986C57.6326 174.176 57.5584 174.345 57.4099 174.493C57.2827 174.62 57.1237 174.683 56.9329 174.683H50.9223C50.2439 174.683 49.7668 174.324 49.4912 173.606L48.6961 171.389H40.9364L40.1414 173.606ZM44.8163 158.625L42.5583 165.213H47.0742L44.8163 158.625Z" fill="white"/>
<path d="M82.4894 152.512C82.7227 152.512 82.9241 152.596 83.0937 152.765C83.2633 152.934 83.3481 153.134 83.3481 153.367V158.181C83.3481 158.413 83.2633 158.614 83.0937 158.783C82.9241 158.952 82.7227 159.036 82.4894 159.036H69.9912V161.063H80.4223C80.6555 161.063 80.8569 161.148 81.0265 161.317C81.1961 161.486 81.281 161.686 81.281 161.919V166.701C81.281 166.934 81.1961 167.134 81.0265 167.303C80.8569 167.472 80.6555 167.557 80.4223 167.557H69.9912V173.828C69.9912 174.06 69.9064 174.261 69.7368 174.43C69.5672 174.599 69.3657 174.683 69.1325 174.683H62.2633C62.03 174.683 61.8286 174.599 61.659 174.43C61.4894 174.261 61.4046 174.06 61.4046 173.828V153.367C61.4046 153.134 61.4894 152.934 61.659 152.765C61.8286 152.596 62.03 152.512 62.2633 152.512H82.4894Z" fill="white"/>
<path d="M111.385 173.701C111.428 173.786 111.449 173.881 111.449 173.986C111.449 174.176 111.375 174.345 111.226 174.493C111.099 174.62 110.94 174.683 110.749 174.683H103.53C103.233 174.683 102.958 174.609 102.703 174.462C102.47 174.314 102.3 174.124 102.194 173.891L99.3958 167.62H96.7244V173.828C96.7244 174.06 96.6396 174.261 96.47 174.43C96.3004 174.599 96.0989 174.683 95.8657 174.683H88.9965C88.7632 174.683 88.5618 174.599 88.3922 174.43C88.2226 174.261 88.1378 174.06 88.1378 173.828V153.367C88.1378 153.134 88.2226 152.934 88.3922 152.765C88.5618 152.596 88.7632 152.512 88.9965 152.512H101.368C103.276 152.512 104.94 152.818 106.36 153.43C107.802 154.042 108.905 154.929 109.668 156.091C110.431 157.252 110.813 158.614 110.813 160.177C110.813 163.048 109.7 165.128 107.474 166.416L111.385 173.701ZM100.7 161.76C101.166 161.76 101.527 161.613 101.781 161.317C102.035 161 102.163 160.61 102.163 160.145C102.163 159.68 102.035 159.279 101.781 158.941C101.548 158.582 101.187 158.403 100.7 158.403H96.7244V161.76H100.7Z" fill="white"/>
<path d="M130.104 168.19H135.86C136.094 168.19 136.295 168.275 136.465 168.444C136.634 168.612 136.719 168.813 136.719 169.045V173.828C136.719 174.06 136.634 174.261 136.465 174.43C136.295 174.599 136.094 174.683 135.86 174.683H115.698C115.465 174.683 115.263 174.599 115.094 174.43C114.924 174.261 114.839 174.06 114.839 173.828V169.045C114.839 168.813 114.924 168.612 115.094 168.444C115.263 168.275 115.465 168.19 115.698 168.19H121.518V159.005H115.698C115.465 159.005 115.263 158.92 115.094 158.751C114.924 158.582 114.839 158.382 114.839 158.15V153.367C114.839 153.134 114.924 152.934 115.094 152.765C115.263 152.596 115.465 152.512 115.698 152.512H135.86C136.094 152.512 136.295 152.596 136.465 152.765C136.634 152.934 136.719 153.134 136.719 153.367V158.15C136.719 158.382 136.634 158.582 136.465 158.751C136.295 158.92 136.094 159.005 135.86 159.005H130.104V168.19Z" fill="white"/>
<path d="M149.873 166.131C149.873 166.997 150.159 167.662 150.731 168.127C151.325 168.591 152.12 168.824 153.117 168.824C154.007 168.824 154.664 168.676 155.088 168.38C155.512 168.085 155.873 167.641 156.17 167.05C156.445 166.501 156.816 166.226 157.283 166.226H164.152C164.343 166.226 164.502 166.3 164.629 166.448C164.777 166.575 164.852 166.733 164.852 166.923C164.852 168.211 164.417 169.478 163.548 170.724C162.678 171.949 161.353 172.973 159.572 173.796C157.813 174.599 155.661 175 153.117 175C150.848 175 148.823 174.662 147.042 173.986C145.283 173.29 143.883 172.234 142.844 170.819C141.806 169.383 141.286 167.599 141.286 165.466V161.729C141.286 159.596 141.806 157.822 142.844 156.407C143.883 154.972 145.283 153.916 147.042 153.24C148.823 152.543 150.848 152.195 153.117 152.195C155.661 152.195 157.813 152.607 159.572 153.43C161.353 154.233 162.678 155.257 163.548 156.502C164.417 157.727 164.852 158.984 164.852 160.272C164.852 160.462 164.777 160.631 164.629 160.778C164.502 160.905 164.343 160.968 164.152 160.968H157.283C156.816 160.968 156.445 160.694 156.17 160.145C155.873 159.554 155.512 159.11 155.088 158.815C154.664 158.519 154.007 158.371 153.117 158.371C152.12 158.371 151.325 158.604 150.731 159.068C150.159 159.533 149.873 160.198 149.873 161.063V166.131Z" fill="white"/>
<path d="M175.238 173.606C174.963 174.324 174.486 174.683 173.807 174.683H167.797C167.606 174.683 167.436 174.62 167.288 174.493C167.161 174.345 167.097 174.176 167.097 173.986L167.129 173.796L174.062 153.557C174.147 153.282 174.306 153.039 174.539 152.828C174.772 152.617 175.09 152.512 175.493 152.512H184.334C184.737 152.512 185.055 152.617 185.288 152.828C185.521 153.039 185.68 153.282 185.765 153.557L192.698 173.796L192.73 173.986C192.73 174.176 192.655 174.345 192.507 174.493C192.38 174.62 192.221 174.683 192.03 174.683H186.019C185.341 174.683 184.864 174.324 184.588 173.606L183.793 171.389H176.034L175.238 173.606ZM179.913 158.625L177.655 165.213H182.171L179.913 158.625Z" fill="white"/>
</svg>
